<svg xmlns="http://www.w3.org/2000/svg" viewBox="0 0 100 100" role="img" aria-label="Kinestry">
  <rect x="2" y="2" width="96" height="96" rx="24" fill="#FBF8F1"/>
  <g transform="translate(13.2,8.4) scale(0.80)">
    <g fill="none" stroke="#2C4034" stroke-width="5" stroke-linecap="round">
      <path d="M46 78 L46 52"/>
      <path d="M46 52 C46 40 30 40 26 30"/>
      <path d="M46 52 C46 40 62 40 66 30"/>
      <path d="M46 56 C46 48 38 46 34 56"/>
      <path d="M46 56 C46 48 54 46 58 56"/>
    </g>
    <g fill="#2C4034">
      <circle cx="46" cy="50" r="6"/>
      <circle cx="24" cy="27" r="7.5"/>
      <circle cx="68" cy="27" r="7.5"/>
      <circle cx="33" cy="58" r="6"/>
      <circle cx="59" cy="58" r="6"/>
    </g>
    <rect x="41" y="78" width="10" height="8" rx="2.5" fill="#A9712C"/>
  </g>
</svg>
